<svg width="18" height="18" viewBox="0 0 18 18" fill="none" xmlns="http://www.w3.org/2000/svg">
<g id="account-circle-line">
<g id="Group">
<path id="Shape" fill-rule="evenodd" clip-rule="evenodd" d="M8.80503 16.0834C4.75253 16.0834 1.46753 12.9122 1.46753 9.00008C1.46753 5.08796 4.75253 1.91675 8.80503 1.91675C12.8575 1.91675 16.1425 5.08796 16.1425 9.00008C16.1425 12.9122 12.8575 16.0834 8.80503 16.0834ZM5.14575 13.4314C6.18441 14.233 7.47517 14.6688 8.80496 14.6668C10.2505 14.6668 11.5734 14.1624 12.5962 13.3266C11.6308 12.3703 10.3056 11.8317 8.92236 11.8334C7.48718 11.8318 6.11714 12.4115 5.14575 13.4314L5.14575 13.4314ZM4.12078 12.4142C5.36722 11.1373 7.10492 10.4144 8.92244 10.4167C10.6736 10.4145 12.3535 11.086 13.5906 12.2825C15.3341 9.91359 14.9388 6.65543 12.6754 4.7396C10.412 2.82377 7.01416 2.87129 4.80921 4.84963C2.60426 6.82796 2.30689 10.0958 4.12078 12.415L4.12078 12.4142ZM8.80512 9.70842C7.18416 9.70842 5.87012 8.43989 5.87012 6.87508C5.87012 5.31028 7.18416 4.04175 8.80512 4.04175C10.4261 4.04175 11.7401 5.31028 11.7401 6.87508C11.7401 8.43989 10.4261 9.70842 8.80512 9.70842ZM8.80515 8.29175C9.61562 8.29175 10.2726 7.65749 10.2726 6.87508C10.2726 6.09268 9.61562 5.45842 8.80515 5.45842C7.99467 5.45842 7.33765 6.09268 7.33765 6.87508C7.33765 7.65749 7.99467 8.29175 8.80515 8.29175Z" fill="white"/>
</g>
</g>
</svg>
