<svg width="18" height="18" viewBox="0 0 18 18" fill="none" xmlns="http://www.w3.org/2000/svg">
<g id="table-2">
<g id="Group">
<path id="Shape" fill-rule="evenodd" clip-rule="evenodd" d="M9.53867 7.5V10.5H13.9412V7.5H9.53867ZM8.07117 7.5H3.66867V10.5H8.07117V7.5ZM9.53867 14.25H13.9412V12H9.53867V14.25ZM8.07117 14.25V12H3.66867V14.25H8.07117ZM9.53867 3.75V6H13.9412V3.75H9.53867ZM8.07117 3.75H3.66867V6H8.07117V3.75ZM2.93492 2.25H14.6749C15.0802 2.25 15.4087 2.58579 15.4087 3V15C15.4087 15.4142 15.0802 15.75 14.6749 15.75H2.93492C2.52968 15.75 2.20117 15.4142 2.20117 15V3C2.20117 2.58579 2.52968 2.25 2.93492 2.25Z" fill="white"/>
</g>
</g>
</svg>
