<svg width="65" height="60" viewBox="0 0 65 60" fill="none" xmlns="http://www.w3.org/2000/svg">
<path fill-rule="evenodd" clip-rule="evenodd" d="M27.7556 0H65V48.3827H27.7556V0Z" fill="white" fill-opacity="0.28"/>
<path fill-rule="evenodd" clip-rule="evenodd" d="M22.7243 59.8326C10.1737 59.8326 0 49.9048 0 37.6575C0 25.4102 10.1737 15.4824 22.7243 15.4824C35.2749 15.4824 45.4486 25.4102 45.4486 37.6575C45.4486 49.9048 35.2749 59.8326 22.7243 59.8326V59.8326ZM11.3914 51.53C14.6082 54.0395 18.6057 55.4037 22.724 55.3973C27.2007 55.3973 31.2979 53.8185 34.4657 51.2018C31.4757 48.208 27.3716 46.5219 23.0876 46.5273C18.6429 46.5223 14.3998 48.3371 11.3914 51.53L11.3914 51.53ZM8.21705 48.3462C12.0773 44.3486 17.459 42.0855 23.0878 42.0929C28.5112 42.086 33.7139 44.1879 37.545 47.9338C42.9447 40.5177 41.7204 30.3177 34.7107 24.32C27.7009 18.3223 17.1779 18.471 10.3491 24.6644C3.52037 30.8578 2.59942 41.0881 8.21705 48.3485L8.21705 48.3462ZM22.7245 39.8752C17.7044 39.8752 13.6348 35.9039 13.6348 31.0051C13.6348 26.1064 17.7044 22.1351 22.7245 22.1351C27.7446 22.1351 31.8143 26.1064 31.8143 31.0051C31.8143 35.9039 27.7446 39.8752 22.7245 39.8752V39.8752ZM22.7246 35.4399C25.2347 35.4399 27.2695 33.4543 27.2695 31.0049C27.2695 28.5555 25.2347 26.5699 22.7246 26.5699C20.2146 26.5699 18.1797 28.5555 18.1797 31.0049C18.1797 33.4543 20.2146 35.4399 22.7246 35.4399V35.4399Z" fill="#7E72F2"/>
</svg>
