<svg width="38" height="30" viewBox="0 0 38 30" fill="none" xmlns="http://www.w3.org/2000/svg">
<mask id="path-1-outside-1_8342_74" maskUnits="userSpaceOnUse" x="7" y="5" width="23" height="21" fill="black">
<rect fill="white" x="7" y="5" width="23" height="21"/>
<path d="M25.7716 8.46484C27.9864 10.3633 28.0919 13.7383 26.1232 15.7773L19.3028 22.8086C18.881 23.2656 18.1427 23.2656 17.7208 22.8086L10.9005 15.7773C8.93176 13.7383 9.03722 10.3633 11.2521 8.46484C13.1857 6.8125 16.0685 7.12891 17.8263 8.95703L18.5294 9.66016L19.1974 8.95703C20.9903 7.12891 23.838 6.8125 25.7716 8.46484Z"/>
</mask>
<path d="M25.7716 8.46484L27.0732 6.94633L27.0709 6.94438L25.7716 8.46484ZM26.1232 15.7773L27.5587 17.1699L27.562 17.1665L26.1232 15.7773ZM19.3028 22.8086L17.8673 21.4161L17.85 21.4338L17.8332 21.452L19.3028 22.8086ZM17.7208 22.8086L19.1904 21.452L19.1736 21.4338L19.1564 21.4161L17.7208 22.8086ZM10.9005 15.7773L9.4617 17.1665L9.46492 17.1699L10.9005 15.7773ZM11.2521 8.46484L9.95276 6.94438L9.95049 6.94633L11.2521 8.46484ZM17.8263 8.95703L16.3846 10.3432L16.3982 10.3574L16.4121 10.3712L17.8263 8.95703ZM18.5294 9.66016L17.1152 11.0744L18.5661 12.5253L19.9794 11.0377L18.5294 9.66016ZM19.1974 8.95703L17.7695 7.55661L17.7584 7.56799L17.7474 7.57953L19.1974 8.95703ZM24.47 9.98336C25.7978 11.1215 25.8655 13.1648 24.6844 14.3882L27.562 17.1665C30.3183 14.3117 30.175 9.60507 27.0732 6.94633L24.47 9.98336ZM24.6876 14.3848L17.8673 21.4161L20.7384 24.2011L27.5587 17.1699L24.6876 14.3848ZM17.8332 21.452C18.2033 21.0511 18.8204 21.0511 19.1904 21.452L16.2512 24.1652C17.465 25.4801 19.5587 25.4801 20.7725 24.1652L17.8332 21.452ZM19.1564 21.4161L12.3361 14.3848L9.46492 17.1699L16.2852 24.2011L19.1564 21.4161ZM12.3393 14.3882C11.1582 13.1648 11.2258 11.1215 12.5536 9.98336L9.95049 6.94633C6.84863 9.60507 6.70535 14.3117 9.4617 17.1665L12.3393 14.3882ZM12.5514 9.98531C13.5805 9.10584 15.2667 9.18062 16.3846 10.3432L19.268 7.57081C16.8702 5.0772 12.7908 4.51916 9.95276 6.94438L12.5514 9.98531ZM16.4121 10.3712L17.1152 11.0744L19.9436 8.24594L19.2405 7.54282L16.4121 10.3712ZM19.9794 11.0377L20.6474 10.3345L17.7474 7.57953L17.0794 8.28266L19.9794 11.0377ZM20.6253 10.3574C21.7907 9.16916 23.4508 9.11242 24.4723 9.98531L27.0709 6.94438C24.2252 4.51258 20.19 5.08866 17.7695 7.55661L20.6253 10.3574Z" fill="#7E72F2" mask="url(#path-1-outside-1_8342_74)"/>
</svg>
